<?xml version="1.0" encoding="UTF-8" standalone="no"?>
<!-- Created with Inkscape (http://www.inkscape.org/) -->

<svg
   xmlns:dc="http://purl.org/dc/elements/1.1/"
   xmlns:cc="http://creativecommons.org/ns#"
   xmlns:rdf="http://www.w3.org/1999/02/22-rdf-syntax-ns#"
   xmlns:svg="http://www.w3.org/2000/svg"
   xmlns="http://www.w3.org/2000/svg"
   xmlns:sodipodi="http://sodipodi.sourceforge.net/DTD/sodipodi-0.dtd"
   xmlns:inkscape="http://www.inkscape.org/namespaces/inkscape"
   width="1052.3622"
   height="744.09448"
   id="svg2"
   version="1.1"
   inkscape:version="0.48.2 r9819"
   sodipodi:docname="illustration of clock.svg">
  <defs
     id="defs4" />
  <sodipodi:namedview
     id="base"
     pagecolor="#ffffff"
     bordercolor="#666666"
     borderopacity="1.0"
     inkscape:pageopacity="0.0"
     inkscape:pageshadow="2"
     inkscape:zoom="1"
     inkscape:cx="550.08324"
     inkscape:cy="356.89956"
     inkscape:document-units="px"
     inkscape:current-layer="layer4"
     showgrid="false"
     showguides="true"
     inkscape:guide-bbox="true"
     inkscape:window-width="1280"
     inkscape:window-height="753"
     inkscape:window-x="0"
     inkscape:window-y="0"
     inkscape:window-maximized="0">
    <inkscape:grid
       type="xygrid"
       id="grid2990"
       empspacing="5"
       visible="true"
       enabled="true"
       snapvisiblegridlinesonly="true" />
  </sodipodi:namedview>
  <metadata
     id="metadata7">
    <rdf:RDF>
      <cc:Work
         rdf:about="">
        <dc:format>image/svg+xml</dc:format>
        <dc:type
           rdf:resource="http://purl.org/dc/dcmitype/StillImage" />
        <dc:title></dc:title>
      </cc:Work>
    </rdf:RDF>
  </metadata>
  <g
     inkscape:groupmode="layer"
     id="layer4"
     inkscape:label="Structure">
    <path
       style="fill:#23ffe7;fill-opacity:1;stroke:#000000;stroke-width:0;stroke-linecap:butt;stroke-linejoin:miter;stroke-miterlimit:4;stroke-opacity:1;stroke-dasharray:none;display:inline"
       d="m 573,634.09448 -140,0 30,-510 70,0 z"
       id="path3821"
       inkscape:connector-curvature="0" />
  </g>
  <g
     inkscape:groupmode="layer"
     id="layer2"
     inkscape:label="OuterRing">
    <path
       sodipodi:type="arc"
       style="fill:#ffffff;fill-opacity:1;fill-rule:evenodd;stroke:#000000;stroke-width:24.33701432;stroke-miterlimit:4;stroke-opacity:1;stroke-dasharray:none"
       id="path2992"
       sodipodi:cx="550"
       sodipodi:cy="364.09448"
       sodipodi:rx="310"
       sodipodi:ry="300"
       d="m 860,364.09448 a 310,300 0 1 1 -620,0 310,300 0 1 1 620,0 z"
       transform="matrix(0.71612903,0,0,0.74,108.12903,104.66457)" />
  </g>
  <g
     inkscape:label="Hours"
     inkscape:groupmode="layer"
     id="layer1"
     transform="translate(0,-308.2677)"
     style="display:inline">
    <path
       sodipodi:type="arc"
       style="fill:#000000;fill-opacity:1;fill-rule:evenodd;stroke:#000000;stroke-width:7.78512239;stroke-miterlimit:4;stroke-opacity:1;stroke-dasharray:none"
       id="path3762"
       sodipodi:cx="515"
       sodipodi:cy="384.09448"
       sodipodi:rx="155"
       sodipodi:ry="160"
       d="m 670,384.09448 a 155,160 0 1 1 -310,0 155,160 0 1 1 310,0 z"
       transform="matrix(1.3050546,0,0,1.2642717,-169.38658,196.7624)" />
    <path
       sodipodi:type="star"
       style="fill:#ffffff;fill-opacity:1;fill-rule:evenodd;stroke:#2e2e2e;stroke-width:0;stroke-miterlimit:4;stroke-opacity:1;stroke-dasharray:none"
       id="path2985"
       sodipodi:sides="120"
       sodipodi:cx="266.42856"
       sodipodi:cy="402.36218"
       sodipodi:r1="156.07616"
       sodipodi:r2="160.07811"
       sodipodi:arg1="0.89605538"
       sodipodi:arg2="0.92223532"
       inkscape:flatsided="false"
       inkscape:rounded="0.7"
       inkscape:randomized="0"
       d="m 363.92856,524.23718 c -3.14661,2.5173 2.40505,3.2658 -0.80638,5.69987 -3.21144,2.43406 -2.43164,-3.1133 -5.70568,-0.76413 -3.27405,2.34916 2.23083,3.38719 -1.10359,5.64984 -3.33442,2.26265 -2.26536,-3.23629 -5.65787,-1.06169 -3.39251,2.17459 2.0505,3.4993 -1.39777,5.58434 -3.44827,2.08504 -2.09288,-3.35041 -5.59455,-1.35635 -3.50166,1.99406 1.86456,3.60183 -1.68811,5.50354 -3.55266,1.90172 -1.91467,-3.45535 -5.5159,-1.64729 -3.60122,1.80807 1.6735,3.69448 -1.97383,5.40765 -3.64732,1.71318 -1.7312,-3.55082 -5.42212,-1.93371 -3.69092,1.61712 1.47784,3.77699 -2.25414,5.29694 -3.73199,1.51994 -1.543,-3.63656 -5.3135,-2.21483 -3.77049,1.42173 1.27815,3.84916 -2.52827,5.1717 -3.80642,1.32254 -1.35056,-3.71233 -5.19029,-2.48988 -3.83974,1.22244 1.07494,3.91077 -2.79548,5.03229 -3.87042,1.12152 -1.15442,-3.77793 -5.05287,-2.75811 -3.89845,1.01982 0.8688,3.96168 -3.05501,4.8791 -3.92381,0.91741 -0.95511,-3.83317 -4.9016,-3.01878 -3.94648,0.81439 0.66027,4.00172 -3.30617,4.71252 -3.96645,0.71081 -0.7532,-3.8779 -4.73689,-3.27117 -3.9837,0.60673 0.44993,4.03079 -3.54828,4.53303 -3.99822,0.50225 -0.54921,-3.912 -4.5592,-3.51459 -4.00999,0.39741 0.23836,4.04881 -3.78066,4.34111 -4.01902,0.29231 -0.34372,-3.93538 -4.36901,-3.74839 -4.02529,0.187 0.0261,4.05574 -4.00268,4.13731 -4.0288,0.0816 -0.13728,-3.94799 -4.16684,-3.97191 -4.02957,-0.0239 -0.18616,4.05155 -4.21372,3.92215 -4.02756,-0.1294 0.0695,-3.94976 -3.95326,-4.18454 -4.02279,-0.23479 -0.39795,4.03625 -4.41322,3.69624 -4.01526,-0.34001 0.27615,-3.94071 -3.72884,-4.3857 -4.00499,-0.445 -0.60864,4.00989 -4.60061,3.46021 -3.99197,-0.54969 0.48201,-3.92086 -3.4942,-4.57485 -3.97621,-0.65399 -0.81768,3.97254 -4.7754,3.21469 -3.95773,-0.75786 0.68655,-3.89025 -3.24999,-4.75145 -3.93653,-0.8612 -1.02446,3.92431 -4.9371,2.96036 -3.91264,-0.96395 0.88921,-3.84899 -2.99686,-4.91503 -3.88606,-1.06604 -1.22843,3.86531 -5.08526,2.69791 -3.85683,-1.16739 1.08943,-3.79717 -2.73552,-5.06513 -3.82495,-1.26796 -1.42905,3.79572 -5.2195,2.42807 -3.79044,-1.36765 1.28667,-3.73495 -2.46668,-5.20136 -3.75335,-1.4664 -1.62574,3.71573 -5.33942,2.15158 -3.71367,-1.56415 1.48038,-3.6625 -2.19108,-5.32333 -3.67146,-1.66082 -1.81798,3.62556 -5.4447,1.86919 -3.62673,-1.75636 1.67002,-3.58 -1.90948,-5.4307 -3.57951,-1.8507 -2.00524,3.52544 -5.53507,1.58167 -3.52983,-1.94377 1.8551,-3.4877 -1.62264,-5.5232 -3.47774,-2.0355 -2.187,3.41566 -5.61026,1.28982 -3.42327,-2.12584 2.03509,-3.38582 -1.33136,-5.60055 -3.36644,-2.21472 -2.36276,3.29652 -5.67008,0.99444 -3.30731,-2.30209 2.20951,-3.27468 -1.03642,-5.66256 -3.24592,-2.38787 -2.53204,3.16835 -5.71435,0.69633 -3.1823,-2.47203 2.37786,-3.15456 -0.73864,-5.70904 -3.1165,-2.55448 -2.6944,3.03149 -5.74296,0.39631 -3.04857,-2.63519 2.53969,-3.02579 -0.43885,-5.73987 -2.97854,-2.71408 -2.84936,2.88632 -5.75583,0.0952 -2.90647,-2.79113 2.69457,-2.88872 -0.13784,-5.75497 -2.83242,-2.86625 -2.99652,2.73324 -5.75293,-0.20617 -2.75641,-2.93941 2.84206,-2.74374 0.16354,-5.7543 -2.67853,-3.01056 -3.13546,2.57267 -5.73426,-0.50697 -2.59879,-3.07965 2.98177,-2.59124 0.46448,-5.73785 -2.5173,-3.14662 -3.2658,2.40504 -5.69986,-0.80639 -2.43407,-3.21143 3.11329,-2.43163 0.76413,-5.70568 -2.34917,-3.27405 -3.3872,2.23083 -5.64985,-1.10359 -2.26265,-3.33442 3.23629,-2.26536 1.06169,-5.65787 -2.17459,-3.3925 -3.4993,2.05051 -5.58434,-1.39776 -2.08504,-3.44827 3.35041,-2.09289 1.35635,-5.59455 -1.99406,-3.50167 -3.60183,1.86455 -5.50354,-1.68812 -1.90172,-3.55266 3.45535,-1.91466 1.64729,-5.51589 -1.80807,-3.60123 -3.69447,1.67349 -5.40765,-1.97383 -1.71318,-3.64733 3.55082,-1.73121 1.93371,-5.42213 -1.61712,-3.69092 -3.77699,1.47785 -5.29694,-2.25414 -1.51994,-3.73199 3.63657,-1.543 2.21484,-5.31349 -1.42173,-3.7705 -3.84916,1.27815 -5.17171,-2.52827 -1.32254,-3.80642 3.71233,-1.35056 2.48989,-5.1903 -1.22245,-3.83973 -3.91078,1.07495 -5.0323,-2.79547 -1.12152,-3.87042 3.77793,-1.15442 2.75811,-5.05287 -1.01982,-3.89845 -3.96168,0.8688 -4.8791,-3.05501 -0.91741,-3.92382 3.83317,-0.95512 3.01878,-4.9016 -0.81439,-3.94648 -4.00172,0.66027 -4.71252,-3.30618 -0.7108,-3.96645 3.8779,-0.75319 3.27117,-4.73689 -0.60673,-3.98369 -4.03079,0.44993 -4.53303,-3.54828 -0.50224,-3.99821 3.912,-0.54921 3.51459,-4.5592 -0.39741,-4.00999 -4.04881,0.23836 -4.34111,-3.78066 -0.29231,-4.01902 3.93538,-0.34371 3.74839,-4.36901 -0.187,-4.02529 -4.05574,0.0261 -4.13731,-4.00267 -0.0816,-4.02881 3.94799,-0.13729 3.97191,-4.16685 0.0239,-4.02956 -4.05155,-0.18616 -3.92215,-4.21372 0.1294,-4.02755 3.94976,0.0695 4.18455,-3.95326 0.23478,-4.02279 -4.03626,-0.39795 -3.69625,-4.41321 0.34001,-4.01527 3.94071,0.27614 4.3857,-3.72884 0.445,-4.00499 -4.00989,-0.60865 -3.4602,-4.60062 0.54968,-3.99196 3.92085,0.48201 4.57484,-3.4942 0.654,-3.97621 -3.97254,-0.81767 -3.21469,-4.7754 0.75786,-3.95773 3.89026,0.68655 4.75145,-3.24998 0.8612,-3.93654 -3.92431,-1.02446 -2.96036,-4.9371 0.96395,-3.91264 3.84899,0.8892 4.91503,-2.99686 1.06604,-3.88607 -3.86531,-1.22844 -2.69791,-5.08527 1.16739,-3.85683 3.79717,1.08943 5.06513,-2.73552 1.26796,-3.82495 -3.79572,-1.42905 -2.42807,-5.21949 1.36765,-3.79045 3.73496,1.28666 5.20136,-2.46668 1.4664,-3.75335 -3.71573,-1.62575 -2.15158,-5.33942 1.56415,-3.71368 3.6625,1.48037 5.32333,-2.19108 1.66082,-3.67146 -3.62556,-1.81799 -1.86919,-5.44471 1.75637,-3.62672 3.58,1.67003 5.4307,-1.90948 1.85071,-3.5795 -3.52544,-2.00523 -1.58167,-5.53507 1.94377,-3.52983 3.4877,1.8551 5.5232,-1.62264 2.0355,-3.47774 -3.41566,-2.18699 -1.28982,-5.61026 2.12584,-3.42327 3.38583,2.03509 5.60055,-1.33135 2.21472,-3.36645 -3.29652,-2.36276 -0.99444,-5.67008 2.30209,-3.30732 3.27468,2.2095 5.66256,-1.03642 2.38787,-3.24592 -3.16835,-2.53205 -0.69633,-5.71435 2.47203,-3.18231 3.15456,2.37785 5.70904,-0.73865 2.55448,-3.1165 -3.03149,-2.6944 -0.39631,-5.74296 2.63519,-3.04857 3.02579,2.53969 5.73987,-0.43885 2.71409,-2.97853 -2.88632,-2.84936 -0.0952,-5.75583 2.79112,-2.90647 2.88872,2.69457 5.75496,-0.13784 2.86625,-2.83241 -2.73324,-2.99651 0.20618,-5.75293 2.93941,-2.75641 2.74373,2.84207 5.75429,0.16354 3.01056,-2.67852 -2.57267,-3.13545 0.50697,-5.73425 3.07965,-2.5988 2.59124,2.98176 5.73786,0.46447 3.14661,-2.51729 -2.40505,-3.2658 0.80638,-5.69986 3.21143,-2.43406 2.43163,3.11329 5.70568,0.76413 3.27405,-2.34916 -2.23083,-3.38719 1.10359,-5.64985 3.33442,-2.26265 2.26536,3.23629 5.65787,1.0617 3.3925,-2.17459 -2.0505,-3.49931 1.39776,-5.58435 3.44827,-2.08504 2.09289,3.35041 5.59455,1.35635 3.50167,-1.99406 -1.86455,-3.60182 1.68812,-5.50354 3.55266,-1.90171 1.91466,3.45536 5.51589,1.64729 3.60123,-1.80806 -1.67349,-3.69447 1.97383,-5.40765 3.64733,-1.71317 1.73121,3.55083 5.42213,1.93371 3.69092,-1.61711 -1.47785,-3.77699 2.25414,-5.29693 3.73199,-1.51994 1.543,3.63656 5.31349,2.21483 3.7705,-1.42173 -1.27814,-3.84916 2.52827,-5.1717 3.80642,-1.32255 1.35056,3.71233 5.1903,2.48988 3.83973,-1.22245 -1.07495,-3.91078 2.79547,-5.0323 3.87042,-1.12151 1.15442,3.77793 5.05287,2.75811 3.89845,-1.01981 -0.8688,-3.96167 3.05502,-4.87909 3.92381,-0.91742 0.95511,3.83317 4.90159,3.01878 3.94648,-0.81439 -0.66027,-4.00172 3.30618,-4.71253 3.96645,-0.7108 0.7532,3.8779 4.73689,3.27117 3.9837,-0.60673 -0.44993,-4.03079 3.54828,-4.53303 3.99821,-0.50224 0.54921,3.91201 4.5592,3.5146 4.00999,-0.39741 -0.23836,-4.04881 3.78066,-4.34112 4.01902,-0.2923 0.34372,3.93539 4.36901,3.74839 4.02529,-0.187 -0.0261,-4.05574 4.00267,-4.1373 4.02881,-0.0816 0.13729,3.94798 4.16685,3.97191 4.02956,0.0239 0.18616,-4.05155 4.21372,-3.92215 4.02755,0.1294 -0.0695,3.94976 3.95326,4.18454 4.02279,0.23478 0.39795,-4.03625 4.41321,-3.69625 4.01527,0.34001 -0.27614,3.94071 3.72885,4.38571 4.00498,0.445 0.60864,-4.00989 4.60061,-3.46021 3.99196,0.54968 -0.48201,3.92085 3.4942,4.57485 3.97621,0.65399 0.81767,-3.97255 4.7754,-3.21469 3.95773,0.75785 -0.68655,3.89025 3.24998,4.75145 3.93654,0.86119 1.02446,-3.92431 4.9371,-2.96036 3.91264,0.96394 -0.8892,3.84899 2.99686,4.91502 3.88607,1.06604 1.22844,-3.86531 5.08527,-2.69791 3.85683,1.1674 -1.08943,3.79718 2.73552,5.06514 3.82495,1.26795 1.42905,-3.79573 5.21949,-2.42808 3.79045,1.36765 -1.28666,3.73496 2.46668,5.20136 3.75335,1.46641 1.62575,-3.71573 5.33942,-2.15158 3.71368,1.56415 -1.48037,3.6625 2.19109,5.32333 3.67145,1.66083 1.81798,-3.62555 5.4447,-1.86919 3.62672,1.75637 -1.67003,3.58001 1.90948,5.43071 3.5795,1.8507 2.00524,-3.52544 5.53507,-1.58167 3.52983,1.94376 -1.8551,3.48769 1.62264,5.52319 3.47774,2.03551 2.18699,-3.41566 5.61026,-1.28982 3.42327,2.12584 -2.03509,3.38583 1.33136,5.60055 3.36644,2.21473 2.36276,-3.29652 5.67007,-0.99443 3.30732,2.30208 -2.2095,3.27468 1.03642,5.66255 3.24592,2.38787 2.53205,-3.16835 5.71435,-0.69632 3.18231,2.47202 -2.37785,3.15455 0.73865,5.70903 3.1165,2.55448 2.6944,-3.03149 5.74296,-0.3963 3.04857,2.63518 -2.53969,3.02578 0.43885,5.73987 2.97854,2.71408 2.84936,-2.88632 5.75583,-0.0952 2.90647,2.79112 -2.69457,2.88872 0.13784,5.75497 2.83241,2.86625 2.99651,-2.73324 5.75293,0.20617 2.75641,2.93941 -2.84206,2.74374 -0.16354,5.7543 2.67852,3.01055 3.13545,-2.57267 5.73425,0.50697 2.5988,3.07964 -2.98176,2.59123 -0.46447,5.73785 2.51729,3.14662 3.2658,-2.40505 5.69986,0.80639 2.43406,3.21143 -3.11329,2.43163 -0.76413,5.70568 2.34916,3.27404 3.3872,-2.23084 5.64985,1.10358 2.26265,3.33442 -3.23629,2.26537 -1.0617,5.65787 2.17459,3.39251 3.49931,-2.0505 5.58435,1.39777 2.08504,3.44827 -3.35041,2.09288 -1.35635,5.59455 1.99406,3.50166 3.60182,-1.86455 5.50354,1.68811 1.90171,3.55267 -3.45536,1.91467 -1.64729,5.5159 1.80807,3.60123 3.69447,-1.6735 5.40765,1.97383 1.71317,3.64732 -3.55083,1.7312 -1.93371,5.42212 1.61711,3.69092 3.77699,-1.47784 5.29693,2.25415 1.51995,3.73198 -3.63656,1.54299 -2.21483,5.31349 1.42173,3.77049 3.84916,-1.27815 5.1717,2.52827 1.32255,3.80642 -3.71233,1.35056 -2.48988,5.19029 1.22245,3.83974 3.91078,-1.07494 5.0323,2.79548 1.12151,3.87042 -3.77793,1.15442 -2.75811,5.05287 1.01981,3.89845 3.96167,-0.8688 4.87909,3.05501 0.91742,3.92381 -3.83317,0.95512 -3.01877,4.9016 0.81439,3.94648 4.00171,-0.66027 4.71252,3.30618 0.7108,3.96644 -3.8779,0.75319 -3.27117,4.73688 0.60673,3.9837 4.03079,-0.44993 4.53303,3.54829 0.50224,3.99821 -3.91201,0.5492 -3.5146,4.55919 0.39741,4.00999 4.04882,-0.23836 4.34112,3.78066 0.2923,4.01902 -3.93539,0.34372 -3.74839,4.36901 0.187,4.0253 4.05574,-0.0261 4.1373,4.00268 0.0816,4.0288 -3.94798,0.13728 -3.97191,4.16684 -0.0239,4.02957 4.05155,0.18617 3.92215,4.21372 -0.1294,4.02756 -3.94975,-0.0695 -4.18454,3.95326 -0.23478,4.02279 4.03625,0.39795 3.69625,4.41322 -0.34001,4.01526 -3.94071,-0.27615 -4.38571,3.72884 -0.445,4.00499 4.0099,0.60864 3.46021,4.60061 -0.54968,3.99197 -3.92085,-0.48201 -4.57485,3.4942 -0.65399,3.97621 3.97255,0.81768 3.21469,4.7754 -0.75785,3.95773 -3.89025,-0.68654 -4.75144,3.24999 -0.8612,3.93653 3.9243,1.02446 2.96035,4.9371 -0.96394,3.91264 -3.84899,-0.88921 -4.91502,2.99686 -1.06604,3.88606 3.86531,1.22843 2.69791,5.08526 -1.1674,3.85683 -3.79718,-1.08943 -5.06514,2.73552 -1.26795,3.82495 3.79573,1.42905 2.42808,5.2195 -1.36765,3.79044 -3.73496,-1.28667 -5.20136,2.46668 -1.4664,3.75335 3.71573,1.62574 2.15158,5.33942 -1.56415,3.71367 -3.6625,-1.48038 -5.32333,2.19108 -1.66083,3.67146 3.62555,1.81798 1.86919,5.4447 -1.75637,3.62673 -3.58001,-1.67002 -5.43071,1.90948 -1.8507,3.57951 3.52544,2.00524 1.58167,5.53507 -1.94376,3.52983 -3.48769,-1.8551 -5.52319,1.62264 -2.0355,3.47774 3.41566,2.187 1.28982,5.61026 -2.12584,3.42327 -3.38583,-2.03509 -5.60055,1.33136 -2.21472,3.36644 3.29652,2.36276 0.99443,5.67008 -2.30208,3.30731 -3.27468,-2.2095 -5.66255,1.03642 -2.38787,3.24592 3.16835,2.53205 0.69632,5.71435 -2.47202,3.1823 -3.15455,-2.37786 -5.70903,0.73864 -2.55448,3.1165 3.03149,2.6944 0.3963,5.74297 -2.63518,3.04856 -3.02578,-2.5397 -5.73987,0.43884 -2.71408,2.97854 2.88632,2.84936 0.0952,5.75583 -2.79112,2.90648 -2.88872,-2.69457 -5.75497,0.13785 -2.86625,2.83241 2.73324,2.99651 -0.20617,5.75292 -2.93941,2.75642 -2.74374,-2.84206 -5.75429,-0.16354 -3.01056,2.67853 2.57266,3.13546 -0.50698,5.73426 -3.07964,2.59879 -2.59123,-2.98177 -5.73785,-0.46448 z"
       transform="matrix(1.0737527,0,0,1.0737527,218.17258,253.24699)" />
    <path
       sodipodi:type="star"
       style="fill:#000000;fill-opacity:1;fill-rule:evenodd;stroke:#000000;stroke-width:0;stroke-miterlimit:4;stroke-opacity:1;stroke-dasharray:none"
       id="path3765"
       sodipodi:sides="8"
       sodipodi:cx="460"
       sodipodi:cy="234.09448"
       sodipodi:r1="38.418743"
       sodipodi:r2="64.031242"
       sodipodi:arg1="0.89605538"
       sodipodi:arg2="1.2887545"
       inkscape:flatsided="false"
       inkscape:rounded="0.6"
       inkscape:randomized="0"
       d="m 484,264.09448 c -15.04029,12.03223 12.32095,26.14066 -6.17899,31.50132 -18.49995,5.36066 -2.9205,-21.19054 -22.06365,-23.31755 -19.14316,-2.12702 -9.77201,27.19646 -26.644,17.90558 -16.872,-9.29087 12.91887,-17.04907 0.88664,-32.08935 -12.03222,-15.04028 -26.14065,12.32095 -31.50131,-6.17899 -5.36067,-18.49994 21.19053,-2.92049 23.31755,-22.06365 2.12701,-19.14315 -27.19647,-9.772 -17.90559,-26.644 9.29087,-16.87199 17.04907,12.91887 32.08935,0.88664 15.04029,-12.03222 -12.32095,-26.14065 6.17899,-31.50131 18.49995,-5.36066 2.9205,21.19053 22.06365,23.31755 19.14316,2.12702 9.77201,-27.19647 26.644,-17.90559 16.872,9.29088 -12.91887,17.04907 -0.88664,32.08935 12.03222,15.04029 26.14065,-12.32095 31.50131,6.17899 5.36067,18.49995 -21.19053,2.9205 -23.31755,22.06365 -2.12701,19.14316 27.19647,9.77201 17.90559,26.644 -9.29087,16.872 -17.04907,-12.91887 -32.08935,-0.88664 z"
       transform="matrix(0.19864367,0,0,0.20248103,412.6646,479.82203)" />
    <path
       sodipodi:type="arc"
       style="fill:#ffffff;fill-opacity:1;fill-rule:evenodd;stroke:#000000;stroke-width:0;stroke-miterlimit:4;stroke-opacity:1;stroke-dasharray:none"
       id="path3772"
       sodipodi:cx="540.14117"
       sodipodi:cy="230.20464"
       sodipodi:rx="2.7400389"
       sodipodi:ry="2.8284271"
       d="m 542.88121,230.20464 a 2.7400389,2.8284271 0 1 1 -5.48007,0 2.7400389,2.8284271 0 1 1 5.48007,0 z"
       transform="matrix(0.91239582,0,0,0.88388349,11.127076,323.84769)" />
    <path
       sodipodi:type="star"
       style="fill:#2300e7;fill-opacity:1;fill-rule:evenodd;stroke:#000000;stroke-width:13.74816132;stroke-miterlimit:4;stroke-opacity:1;stroke-dasharray:none;display:inline"
       id="path3808"
       sodipodi:sides="3"
       sodipodi:cx="666"
       sodipodi:cy="132.09448"
       sodipodi:r1="51.855568"
       sodipodi:r2="51.855568"
       sodipodi:arg1="0.88099628"
       sodipodi:arg2="1.9281938"
       inkscape:flatsided="true"
       inkscape:rounded="0"
       inkscape:randomized="0"
       d="M 699,172.09448 614.85898,140.67332 684.14102,83.515645 z"
       inkscape:transform-center-x="-2.0043771"
       inkscape:transform-center-y="10.129123"
       transform="matrix(0.26223454,0.24720356,-0.21458061,0.30210238,355.47285,261.37398)" />
  </g>
  <g
     inkscape:groupmode="layer"
     id="layer3"
     inkscape:label="Minutes"
     style="display:inline">
    <path
       sodipodi:type="arc"
       style="fill:#000000;fill-opacity:1;fill-rule:evenodd;stroke:#000000;stroke-width:0;stroke-miterlimit:4;stroke-opacity:1;stroke-dasharray:none"
       id="path3794"
       sodipodi:cx="470"
       sodipodi:cy="339.09448"
       sodipodi:rx="60"
       sodipodi:ry="65"
       d="m 530,339.09448 a 60,65 0 1 1 -120,0 60,65 0 1 1 120,0 z"
       transform="matrix(2.5688976,0,0,2.3712901,-701.51573,-429.99691)" />
    <path
       sodipodi:type="star"
       style="fill:#ffffff;fill-opacity:1;fill-rule:evenodd;stroke:#000000;stroke-width:0;stroke-miterlimit:4;stroke-opacity:1;stroke-dasharray:none"
       id="path3796"
       sodipodi:sides="60"
       sodipodi:cx="420"
       sodipodi:cy="294.09448"
       sodipodi:r1="148.66069"
       sodipodi:r2="141.22766"
       sodipodi:arg1="0.83298127"
       sodipodi:arg2="0.88534115"
       inkscape:flatsided="false"
       inkscape:rounded="0.6"
       inkscape:randomized="0"
       d="m 520,404.09448 c -4.71513,4.28649 -5.66629,-4.70513 -10.5993,-0.67129 -4.93301,4.03384 3.69073,6.75141 -1.44664,10.52155 -5.13737,3.77014 -5.14343,-5.27165 -10.47107,-1.77554 -5.32763,3.4961 2.96479,7.10021 -2.53851,10.31269 -5.50331,3.21249 -4.56422,-5.7804 -10.22811,-2.86034 -5.6639,2.92006 2.20637,7.37122 -3.60259,9.99085 -5.80895,2.61964 -3.93499,-6.22583 -9.87309,-3.9138 -5.9381,2.31203 1.42379,7.56147 -4.62717,9.55955 -6.05097,1.99808 -3.26266,-6.60304 -9.40991,-4.92438 -6.14724,1.67866 0.6256,7.66887 -5.60107,9.02351 -6.22667,1.35464 -2.55458,-6.90791 -8.84361,-5.88101 -6.28904,1.02691 -0.17945,7.69226 -6.51361,8.38861 -6.33416,0.69635 -1.81851,-7.13709 -8.18043,-6.7732 -6.36193,0.3639 -0.98253,7.63136 -7.35477,7.6618 -6.37225,0.0304 -1.06253,-7.28809 -7.42764,-7.59119 -6.3651,-0.3031 -1.77483,7.48685 -8.11535,6.85104 -6.34052,-0.6358 -0.29489,-7.35922 -6.59345,-8.32599 -6.29855,-0.96678 -2.5477,7.26031 -8.78703,5.96522 -6.23932,-1.29509 0.47598,-7.34973 -5.68702,-8.96959 -6.163,-1.61985 -3.29265,6.95424 -9.36243,5.01406 -6.06977,-1.94019 1.24163,-7.25972 -4.71829,-9.51491 -5.95991,-2.2552 -4.00153,6.57196 -9.83525,4.00794 -5.83372,-2.56402 1.99367,-7.09016 -3.69786,-9.95598 -5.69154,-2.86582 -4.66657,6.11769 -10.20032,2.95793 -5.53375,-3.15977 2.72387,-6.84293 -2.63692,-10.28798 -5.3608,-3.44504 -5.28048,5.59639 -10.45363,1.8755 -5.17315,-3.72089 3.42423,-6.52072 -1.54709,-10.50725 -4.97133,-3.98653 -5.83653,5.01377 -10.5924,0.77252 -4.75588,-4.24124 4.08707,-6.12706 -0.44032,-10.6114 -4.52738,-4.48434 -6.32864,4.37622 -10.61512,-0.33892 -4.28649,-4.71513 4.70513,-5.66628 0.67129,-10.59929 -4.03384,-4.93302 -6.75141,3.69072 -10.52155,-1.44665 -3.77014,-5.13736 5.27165,-5.14342 1.77555,-10.47106 -3.49611,-5.32764 -7.10021,2.96479 -10.3127,-2.53852 -3.21248,-5.50331 5.78041,-4.56422 2.86034,-10.22811 -2.92006,-5.6639 -7.37121,2.20637 -9.99085,-3.60258 -2.61963,-5.80896 6.22583,-3.935 3.9138,-9.8731 -2.31202,-5.93809 -7.56147,1.42379 -9.55955,-4.62717 -1.99808,-6.05096 6.60304,-3.26266 4.92438,-9.4099 -1.67866,-6.14724 -7.66887,0.62559 -9.02351,-5.60108 -1.35464,-6.22667 6.90791,-2.55458 5.88101,-8.84361 -1.0269,-6.28904 -7.69225,-0.17945 -8.38861,-6.51361 -0.69635,-6.33415 7.1371,-1.81851 6.7732,-8.18043 -0.36389,-6.36192 -7.63136,-0.98252 -7.66179,-7.35477 -0.0304,-6.37225 7.28808,-1.06252 7.59118,-7.42763 0.3031,-6.36511 -7.48685,-1.77484 -6.85104,-8.11536 0.63581,-6.34052 7.35922,-0.29489 8.32599,-6.59345 0.96678,-6.29855 -7.26031,-2.54769 -5.96522,-8.78702 1.29509,-6.23933 7.34973,0.47597 8.96959,-5.68703 1.61986,-6.16299 -6.95424,-3.29265 -5.01405,-9.36242 1.94018,-6.06978 7.25971,1.24162 9.51491,-4.7183 2.25519,-5.95991 -6.57197,-4.00153 -4.00795,-9.83525 2.56402,-5.83371 7.09016,1.99367 9.95598,-3.69786 2.86582,-5.69153 -6.11769,-4.66657 -2.95792,-10.20032 3.15976,-5.53375 6.84292,2.72387 10.28797,-2.63692 3.44505,-5.3608 -5.59639,-5.28048 -1.8755,-10.45363 3.72089,-5.17315 6.52072,3.42423 10.50725,-1.54709 3.98653,-4.97132 -5.01377,-5.83653 -0.77252,-10.5924 4.24124,-4.75587 6.12707,4.08707 10.6114,-0.44031 4.48434,-4.52739 -4.37622,-6.32864 0.33892,-10.61513 4.71513,-4.28649 5.66629,4.70513 10.5993,0.67129 4.93301,-4.03384 -3.69073,-6.75141 1.44664,-10.52154 5.13737,-3.77014 5.14343,5.27164 10.47107,1.77554 5.32763,-3.4961 -2.96479,-7.10021 2.53851,-10.3127 5.50331,-3.21248 4.56422,5.78041 10.22811,2.86035 5.6639,-2.92006 -2.20637,-7.37122 3.60259,-9.99086 5.80895,-2.61963 3.93499,6.22583 9.87309,3.9138 5.9381,-2.31202 -1.42379,-7.56146 4.62717,-9.55955 6.05097,-1.99808 3.26266,6.60305 9.40991,4.92439 6.14724,-1.67867 -0.6256,-7.66888 5.60107,-9.02351 6.22667,-1.35464 2.55458,6.90791 8.84361,5.881 6.28904,-1.0269 0.17945,-7.69225 6.51361,-8.38861 6.33416,-0.69635 1.81851,7.1371 8.18043,6.7732 6.36193,-0.36389 0.98253,-7.63135 7.35477,-7.66179 6.37225,-0.0304 1.06253,7.28808 7.42764,7.59118 6.3651,0.3031 1.77483,-7.48685 8.11535,-6.85104 6.34052,0.63581 0.29489,7.35922 6.59345,8.326 6.29855,0.96677 2.5477,-7.26032 8.78703,-5.96523 6.23932,1.29509 -0.47598,7.34973 5.68702,8.96959 6.163,1.61986 3.29265,-6.95423 9.36243,-5.01405 6.06977,1.94018 -1.24163,7.25972 4.71829,9.51491 5.95991,2.25519 4.00153,-6.57197 9.83525,-4.00795 5.83372,2.56402 -1.99367,7.09017 3.69786,9.95598 5.69154,2.86582 4.66657,-6.11768 10.20032,-2.95792 5.53375,3.15976 -2.72387,6.84293 2.63692,10.28797 5.3608,3.44505 5.28048,-5.59638 10.45363,-1.8755 5.17315,3.72089 -3.42423,6.52072 1.54709,10.50725 4.97133,3.98653 5.83653,-5.01377 10.5924,-0.77252 4.75588,4.24125 -4.08707,6.12707 0.44032,10.6114 4.52738,4.48434 6.32864,-4.37621 10.61512,0.33892 4.28649,4.71514 -4.70513,5.66629 -0.67129,10.5993 4.03384,4.93301 6.75141,-3.69072 10.52155,1.44664 3.77014,5.13737 -5.27165,5.14343 -1.77555,10.47107 3.49611,5.32764 7.10021,-2.96479 10.3127,2.53852 3.21248,5.50331 -5.78041,4.56421 -2.86034,10.22811 2.92006,5.66389 7.37121,-2.20638 9.99085,3.60258 2.61963,5.80896 -6.22583,3.93499 -3.9138,9.87309 2.31202,5.9381 7.56147,-1.42378 9.55955,4.62718 1.99808,6.05096 -6.60304,3.26266 -4.92438,9.4099 1.67866,6.14724 7.66887,-0.6256 9.02351,5.60107 1.35464,6.22667 -6.90791,2.55458 -5.88101,8.84362 1.0269,6.28903 7.69225,0.17944 8.38861,6.5136 0.69635,6.33416 -7.1371,1.81851 -6.7732,8.18044 0.36389,6.36192 7.63136,0.98252 7.66179,7.35477 0.0304,6.37225 -7.28808,1.06252 -7.59118,7.42763 -0.3031,6.36511 7.48685,1.77483 6.85104,8.11535 -0.63581,6.34053 -7.35922,0.29489 -8.32599,6.59345 -0.96678,6.29856 7.26031,2.5477 5.96522,8.78703 -1.29509,6.23933 -7.34973,-0.47598 -8.96959,5.68702 -1.61986,6.163 6.95424,3.29265 5.01405,9.36243 -1.94018,6.06977 -7.25971,-1.24162 -9.51491,4.71829 -2.25519,5.95991 6.57197,4.00153 4.00795,9.83525 -2.56402,5.83372 -7.09016,-1.99367 -9.95598,3.69787 -2.86582,5.69153 6.11769,4.66656 2.95792,10.20031 -3.15976,5.53375 -6.84292,-2.72387 -10.28797,2.63693 -3.44505,5.36079 5.59639,5.28047 1.8755,10.45362 -3.72089,5.17315 -6.52072,-3.42423 -10.50725,1.5471 -3.98653,4.97132 5.01377,5.83653 0.77252,10.5924 -4.24124,4.75587 -6.12707,-4.08707 -10.6114,0.44031 -4.48434,4.52738 4.37622,6.32864 -0.33892,10.61512 z"
       transform="matrix(0.79847665,0,0,0.79847665,171.44643,139.15196)" />
    <path
       sodipodi:type="star"
       style="fill:#000000;fill-opacity:1;fill-rule:evenodd;stroke:#000000;stroke-width:0;stroke-miterlimit:4;stroke-opacity:1;stroke-dasharray:none"
       id="path3800"
       sodipodi:sides="8"
       sodipodi:cx="490"
       sodipodi:cy="244.09448"
       sodipodi:r1="36.055511"
       sodipodi:r2="25.238857"
       sodipodi:arg1="0.5880026"
       sodipodi:arg2="0.98070168"
       inkscape:flatsided="false"
       inkscape:rounded="0.6"
       inkscape:randomized="0"
       d="m 520,264.09448 c -5.32033,7.98049 -7.98676,-4.36634 -15.9561,0.97067 -7.96934,5.33701 2.43227,12.50365 -6.97283,14.38467 -9.4051,1.88102 -2.56002,-8.73496 -11.96903,-10.5963 -9.40901,-1.86134 -7.12155,10.56129 -15.10204,5.24096 -7.98049,-5.32033 4.36635,-7.98675 -0.97066,-15.9561 -5.33702,-7.96934 -12.50366,2.43227 -14.38468,-6.97283 -1.88102,-9.4051 8.73496,-2.56001 10.5963,-11.96903 1.86134,-9.40901 -10.56129,-7.12155 -5.24096,-15.10204 5.32033,-7.98049 7.98676,4.36635 15.9561,-0.97066 7.96934,-5.33701 -2.43227,-12.50366 6.97283,-14.38468 9.4051,-1.88102 2.56002,8.73497 11.96903,10.59631 9.40901,1.86134 7.12155,-10.56129 15.10204,-5.24097 7.98049,5.32033 -4.36635,7.98676 0.97066,15.9561 5.33702,7.96934 12.50366,-2.43226 14.38468,6.97283 1.88102,9.4051 -8.73496,2.56002 -10.5963,11.96903 -1.86134,9.40902 10.56129,7.12155 5.24096,15.10204 z"
       transform="matrix(0.48411374,0.08630506,-0.08630506,0.48411374,290.38292,113.58984)" />
    <path
       sodipodi:type="arc"
       style="fill:#ffffff;fill-opacity:1;fill-rule:evenodd;stroke:#000000;stroke-width:0;stroke-miterlimit:4;stroke-opacity:1;stroke-dasharray:none"
       id="path3802"
       sodipodi:cx="541.75"
       sodipodi:cy="292.09448"
       sodipodi:rx="3"
       sodipodi:ry="3"
       d="m 544.75,292.09448 a 3,3 0 1 1 -6,0 3,3 0 1 1 6,0 z"
       transform="matrix(0.83333333,0,0,0.83333333,55.21324,29.725307)" />
  </g>
</svg>
